<svg xmlns="http://www.w3.org/2000/svg" viewBox="0 0 1997.19 1418.47"><defs><style>.cls-1{fill:#700009;}</style></defs><title>Asset 1</title><g id="Layer_2" data-name="Layer 2"><g id="Layer_3" data-name="Layer 3"><path d="M1478.81,310.83,1568,9.5a7.4,7.4,0,0,0-7.1-9.5H683.75A170.13,170.13,0,0,0,518.68,129L414.27,547.65h-354L0,789.41H354L197.13,1418.47H594.2L758,789.41H935l60.29-241.76H820.89l60.26-231.5a7.11,7.11,0,0,1,6.88-5.32Z"/><path class="cls-1" d="M1193.62,1047.1l-20.49,82.16a17.27,17.27,0,0,0,16.76,21.45h680.94a7.4,7.4,0,0,1,7.18,9.19l-54.72,219.48a17.27,17.27,0,0,1-16.76,13.09H975.63a187.49,187.49,0,0,1-181.92-232.84L880.06,813.3a69.07,69.07,0,0,1,67-52.36h314.19l-24.46,98.67h347.87l28.09-112.67H1250.56l52.25-209.54a7.76,7.76,0,0,1,7.53-5.88h536.37a150.48,150.48,0,0,1,146,186.89l-82,328.69Z"/></g></g></svg>